<svg width="89" height="74" viewBox="0 0 89 74" fill="none" xmlns="http://www.w3.org/2000/svg">
<path d="M88.1009 57.7969C84.7303 43.4315 74.237 23.4167 42.4995 19.1884V6.52093C42.4995 3.88017 40.9003 1.50078 38.4589 0.494035C36.0176 -0.514641 33.2084 0.0506822 31.344 1.9209L2.52605 30.8821C-0.840725 34.2663 -0.842661 39.7337 2.52411 43.1179L31.344 72.0791C33.2045 73.9493 36.0195 74.5146 38.4609 73.506C40.9022 72.4973 42.5014 70.1179 42.5014 67.4791V55.222C53.3297 55.2356 68.9399 56.6605 80.0451 63.5721C81.8901 64.7222 84.2424 64.6467 86.0081 63.3766C87.7699 62.1143 88.5985 59.9111 88.1009 57.7969Z" fill="black"/>
</svg>
